<mxfile host="app.diagrams.net" agent="Mozilla/5.0 (Macintosh; Intel Mac OS X 10_15_7) AppleWebKit/537.36 (KHTML, like Gecko) Chrome/136.0.0.0 Safari/537.36" version="26.2.6">
  <diagram name="Borsa" id="OaHRpIkS-25KwVS5H64q">
    <mxGraphModel grid="1" page="1" gridSize="10" guides="1" tooltips="1" connect="1" arrows="1" fold="1" pageScale="1" pageWidth="827" pageHeight="1169" math="0" shadow="0">
      <root>
        <mxCell id="0" />
        <mxCell id="1" parent="0" />
        <mxCell id="zTeby96g7i19c0ISHE-w-2" value="Borsa" style="swimlane;fontStyle=1;align=center;verticalAlign=top;childLayout=stackLayout;horizontal=1;startSize=26;horizontalStack=0;resizeParent=1;resizeParentMax=0;resizeLast=0;collapsible=1;marginBottom=0;whiteSpace=wrap;html=1;" vertex="1" parent="1">
          <mxGeometry x="60" y="50" width="230" height="200" as="geometry" />
        </mxCell>
        <mxCell id="zTeby96g7i19c0ISHE-w-3" value="- analizzatoreStatistiche: &lt;br&gt;Analizzatore&lt;br&gt;- analizzatoreTrend:&lt;br style=&quot;border-color: var(--border-color);&quot;&gt;Analizzatore" style="text;strokeColor=none;fillColor=none;align=left;verticalAlign=top;spacingLeft=4;spacingRight=4;overflow=hidden;rotatable=0;points=[[0,0.5],[1,0.5]];portConstraint=eastwest;whiteSpace=wrap;html=1;" vertex="1" parent="zTeby96g7i19c0ISHE-w-2">
          <mxGeometry y="26" width="230" height="74" as="geometry" />
        </mxCell>
        <mxCell id="zTeby96g7i19c0ISHE-w-4" value="" style="line;strokeWidth=1;fillColor=none;align=left;verticalAlign=middle;spacingTop=-1;spacingLeft=3;spacingRight=3;rotatable=0;labelPosition=right;points=[];portConstraint=eastwest;strokeColor=inherit;" vertex="1" parent="zTeby96g7i19c0ISHE-w-2">
          <mxGeometry y="100" width="230" height="8" as="geometry" />
        </mxCell>
        <mxCell id="zTeby96g7i19c0ISHE-w-5" value="+ nuovaTransazione(t:Transazione)" style="text;strokeColor=none;fillColor=none;align=left;verticalAlign=top;spacingLeft=4;spacingRight=4;overflow=hidden;rotatable=0;points=[[0,0.5],[1,0.5]];portConstraint=eastwest;whiteSpace=wrap;html=1;" vertex="1" parent="zTeby96g7i19c0ISHE-w-2">
          <mxGeometry y="108" width="230" height="92" as="geometry" />
        </mxCell>
        <mxCell id="zTeby96g7i19c0ISHE-w-7" value="&lt;i&gt;Analizzatore &amp;lt;abstract&amp;gt;&lt;/i&gt;" style="swimlane;fontStyle=1;align=center;verticalAlign=top;childLayout=stackLayout;horizontal=1;startSize=26;horizontalStack=0;resizeParent=1;resizeParentMax=0;resizeLast=0;collapsible=1;marginBottom=0;whiteSpace=wrap;html=1;" vertex="1" parent="1">
          <mxGeometry x="370" y="50" width="220" height="94" as="geometry" />
        </mxCell>
        <mxCell id="zTeby96g7i19c0ISHE-w-9" value="" style="line;strokeWidth=1;fillColor=none;align=left;verticalAlign=middle;spacingTop=-1;spacingLeft=3;spacingRight=3;rotatable=0;labelPosition=right;points=[];portConstraint=eastwest;strokeColor=inherit;" vertex="1" parent="zTeby96g7i19c0ISHE-w-7">
          <mxGeometry y="26" width="220" height="8" as="geometry" />
        </mxCell>
        <mxCell id="zTeby96g7i19c0ISHE-w-10" value="+ analizza(t:Transazione) &amp;lt;abstract&amp;gt;" style="text;strokeColor=none;fillColor=none;align=left;verticalAlign=top;spacingLeft=4;spacingRight=4;overflow=hidden;rotatable=0;points=[[0,0.5],[1,0.5]];portConstraint=eastwest;whiteSpace=wrap;html=1;" vertex="1" parent="zTeby96g7i19c0ISHE-w-7">
          <mxGeometry y="34" width="220" height="60" as="geometry" />
        </mxCell>
        <mxCell id="zTeby96g7i19c0ISHE-w-11" value="" style="endArrow=open;endFill=1;endSize=12;html=1;rounded=0;exitX=1;exitY=0.5;exitDx=0;exitDy=0;entryX=-0.009;entryY=0.05;entryDx=0;entryDy=0;entryPerimeter=0;" edge="1" parent="1" source="zTeby96g7i19c0ISHE-w-3" target="zTeby96g7i19c0ISHE-w-10">
          <mxGeometry width="160" relative="1" as="geometry">
            <mxPoint x="260" y="380" as="sourcePoint" />
            <mxPoint x="420" y="380" as="targetPoint" />
          </mxGeometry>
        </mxCell>
        <mxCell id="zTeby96g7i19c0ISHE-w-12" value="AnalizzatoreStatistiche" style="swimlane;fontStyle=1;align=center;verticalAlign=top;childLayout=stackLayout;horizontal=1;startSize=26;horizontalStack=0;resizeParent=1;resizeParentMax=0;resizeLast=0;collapsible=1;marginBottom=0;whiteSpace=wrap;html=1;" vertex="1" parent="1">
          <mxGeometry x="220" y="330" width="230" height="200" as="geometry" />
        </mxCell>
        <mxCell id="zTeby96g7i19c0ISHE-w-13" value="- transazioni:List&amp;lt;Tansazione&amp;gt;" style="text;strokeColor=none;fillColor=none;align=left;verticalAlign=top;spacingLeft=4;spacingRight=4;overflow=hidden;rotatable=0;points=[[0,0.5],[1,0.5]];portConstraint=eastwest;whiteSpace=wrap;html=1;" vertex="1" parent="zTeby96g7i19c0ISHE-w-12">
          <mxGeometry y="26" width="230" height="74" as="geometry" />
        </mxCell>
        <mxCell id="zTeby96g7i19c0ISHE-w-14" value="" style="line;strokeWidth=1;fillColor=none;align=left;verticalAlign=middle;spacingTop=-1;spacingLeft=3;spacingRight=3;rotatable=0;labelPosition=right;points=[];portConstraint=eastwest;strokeColor=inherit;" vertex="1" parent="zTeby96g7i19c0ISHE-w-12">
          <mxGeometry y="100" width="230" height="8" as="geometry" />
        </mxCell>
        <mxCell id="zTeby96g7i19c0ISHE-w-15" value="+ analizza(t:Transazione)&amp;nbsp;&lt;br&gt;+toString():String" style="text;strokeColor=none;fillColor=none;align=left;verticalAlign=top;spacingLeft=4;spacingRight=4;overflow=hidden;rotatable=0;points=[[0,0.5],[1,0.5]];portConstraint=eastwest;whiteSpace=wrap;html=1;" vertex="1" parent="zTeby96g7i19c0ISHE-w-12">
          <mxGeometry y="108" width="230" height="92" as="geometry" />
        </mxCell>
        <mxCell id="zTeby96g7i19c0ISHE-w-16" value="Extends" style="endArrow=block;endSize=16;endFill=0;html=1;rounded=0;entryX=0.5;entryY=1.067;entryDx=0;entryDy=0;entryPerimeter=0;exitX=0.5;exitY=0;exitDx=0;exitDy=0;" edge="1" parent="1" source="zTeby96g7i19c0ISHE-w-12" target="zTeby96g7i19c0ISHE-w-10">
          <mxGeometry width="160" relative="1" as="geometry">
            <mxPoint x="260" y="380" as="sourcePoint" />
            <mxPoint x="420" y="380" as="targetPoint" />
          </mxGeometry>
        </mxCell>
        <mxCell id="zTeby96g7i19c0ISHE-w-17" value="AnalizzatoreTrend" style="swimlane;fontStyle=1;align=center;verticalAlign=top;childLayout=stackLayout;horizontal=1;startSize=26;horizontalStack=0;resizeParent=1;resizeParentMax=0;resizeLast=0;collapsible=1;marginBottom=0;whiteSpace=wrap;html=1;" vertex="1" parent="1">
          <mxGeometry x="460" y="330" width="230" height="200" as="geometry" />
        </mxCell>
        <mxCell id="zTeby96g7i19c0ISHE-w-18" value="- ultimaTransazioni:Tansazione&lt;br&gt;-trendImporto:double" style="text;strokeColor=none;fillColor=none;align=left;verticalAlign=top;spacingLeft=4;spacingRight=4;overflow=hidden;rotatable=0;points=[[0,0.5],[1,0.5]];portConstraint=eastwest;whiteSpace=wrap;html=1;" vertex="1" parent="zTeby96g7i19c0ISHE-w-17">
          <mxGeometry y="26" width="230" height="74" as="geometry" />
        </mxCell>
        <mxCell id="zTeby96g7i19c0ISHE-w-19" value="" style="line;strokeWidth=1;fillColor=none;align=left;verticalAlign=middle;spacingTop=-1;spacingLeft=3;spacingRight=3;rotatable=0;labelPosition=right;points=[];portConstraint=eastwest;strokeColor=inherit;" vertex="1" parent="zTeby96g7i19c0ISHE-w-17">
          <mxGeometry y="100" width="230" height="8" as="geometry" />
        </mxCell>
        <mxCell id="zTeby96g7i19c0ISHE-w-20" value="+ analizza(t:Transazione)&amp;nbsp;&lt;br style=&quot;border-color: var(--border-color);&quot;&gt;+toString():String" style="text;strokeColor=none;fillColor=none;align=left;verticalAlign=top;spacingLeft=4;spacingRight=4;overflow=hidden;rotatable=0;points=[[0,0.5],[1,0.5]];portConstraint=eastwest;whiteSpace=wrap;html=1;" vertex="1" parent="zTeby96g7i19c0ISHE-w-17">
          <mxGeometry y="108" width="230" height="92" as="geometry" />
        </mxCell>
        <mxCell id="zTeby96g7i19c0ISHE-w-21" value="Extends" style="endArrow=block;endSize=16;endFill=0;html=1;rounded=0;entryX=0.495;entryY=1.05;entryDx=0;entryDy=0;entryPerimeter=0;exitX=0.5;exitY=0;exitDx=0;exitDy=0;" edge="1" parent="1" source="zTeby96g7i19c0ISHE-w-17" target="zTeby96g7i19c0ISHE-w-10">
          <mxGeometry width="160" relative="1" as="geometry">
            <mxPoint x="345" y="340" as="sourcePoint" />
            <mxPoint x="490" y="184" as="targetPoint" />
          </mxGeometry>
        </mxCell>
        <mxCell id="zTeby96g7i19c0ISHE-w-22" value="Transazione" style="swimlane;fontStyle=1;align=center;verticalAlign=top;childLayout=stackLayout;horizontal=1;startSize=26;horizontalStack=0;resizeParent=1;resizeParentMax=0;resizeLast=0;collapsible=1;marginBottom=0;whiteSpace=wrap;html=1;" vertex="1" parent="1">
          <mxGeometry x="710" y="60" width="220" height="180" as="geometry" />
        </mxCell>
        <mxCell id="zTeby96g7i19c0ISHE-w-23" value="- compagnia: String&lt;br&gt;-importo:double" style="text;strokeColor=none;fillColor=none;align=left;verticalAlign=top;spacingLeft=4;spacingRight=4;overflow=hidden;rotatable=0;points=[[0,0.5],[1,0.5]];portConstraint=eastwest;whiteSpace=wrap;html=1;" vertex="1" parent="zTeby96g7i19c0ISHE-w-22">
          <mxGeometry y="26" width="220" height="34" as="geometry" />
        </mxCell>
        <mxCell id="zTeby96g7i19c0ISHE-w-24" value="" style="line;strokeWidth=1;fillColor=none;align=left;verticalAlign=middle;spacingTop=-1;spacingLeft=3;spacingRight=3;rotatable=0;labelPosition=right;points=[];portConstraint=eastwest;strokeColor=inherit;" vertex="1" parent="zTeby96g7i19c0ISHE-w-22">
          <mxGeometry y="60" width="220" height="38" as="geometry" />
        </mxCell>
        <mxCell id="zTeby96g7i19c0ISHE-w-25" value="+ Transazione(compagnia:String, importo:double)&amp;nbsp;&lt;br&gt;+getCompagnia():String&lt;br&gt;+getImporto():double" style="text;strokeColor=none;fillColor=none;align=left;verticalAlign=top;spacingLeft=4;spacingRight=4;overflow=hidden;rotatable=0;points=[[0,0.5],[1,0.5]];portConstraint=eastwest;whiteSpace=wrap;html=1;" vertex="1" parent="zTeby96g7i19c0ISHE-w-22">
          <mxGeometry y="98" width="220" height="82" as="geometry" />
        </mxCell>
        <mxCell id="zTeby96g7i19c0ISHE-w-26" value="" style="endArrow=open;endFill=1;endSize=12;html=1;rounded=0;exitX=1;exitY=0.5;exitDx=0;exitDy=0;entryX=-0.005;entryY=0.853;entryDx=0;entryDy=0;entryPerimeter=0;" edge="1" parent="1" source="zTeby96g7i19c0ISHE-w-10" target="zTeby96g7i19c0ISHE-w-23">
          <mxGeometry width="160" relative="1" as="geometry">
            <mxPoint x="300" y="123" as="sourcePoint" />
            <mxPoint x="378" y="97" as="targetPoint" />
          </mxGeometry>
        </mxCell>
      </root>
    </mxGraphModel>
  </diagram>
</mxfile>
